<svg id="Layer_1" data-name="Layer 1" xmlns="http://www.w3.org/2000/svg" width="64" height="64" viewBox="0 0 64 64"><defs><style>.cls-1{fill:#666;}</style></defs><title>gift</title><path class="cls-1" d="M52,16H48.46a6,6,0,0,0-8.67-8.28L31,15.65l-8.76-7.9A6,6,0,0,0,13.54,16H10a4,4,0,0,0-4,4v7a1,1,0,0,0,1,1H8V56a4,4,0,0,0,4,4H50a4,4,0,0,0,4-4V28h1a1,1,0,0,0,1-1V20A4,4,0,0,0,52,16ZM41.17,9.17a4.1,4.1,0,0,1,5.66,0A4,4,0,0,1,44,16H33.6Zm-26,5.66a4,4,0,1,1,5.7-5.62L28.4,16H18A4,4,0,0,1,15.17,14.83ZM8,20a2,2,0,0,1,2-2H30v8H8V20Zm2,36V28H30V58H12A2,2,0,0,1,10,56Zm42,0a2,2,0,0,1-2,2H32V28H52V56Zm2-30H32V18H52a2,2,0,0,1,2,2v6Z"/></svg>