<svg id="Layer_1" data-name="Layer 1" xmlns="http://www.w3.org/2000/svg" width="64" height="64" viewBox="0 0 64 64"><defs><style>.cls-1{fill:#666;}</style></defs><title>finger_print</title><path id="finger_print" class="cls-1" d="M7.69,21.24a1,1,0,0,1-.44-0.1,1,1,0,0,1-.46-1.34A27.85,27.85,0,0,1,31.67,4H32a1,1,0,0,1,0,2H31.71A25.87,25.87,0,0,0,8.59,20.67,1,1,0,0,1,7.69,21.24ZM6.43,41.69A1,1,0,0,1,5.48,41a28.16,28.16,0,0,1-.3-17.07,1,1,0,1,1,1.92.57,26.15,26.15,0,0,0,.28,15.86A1,1,0,0,1,6.43,41.69ZM59,32.34a1,1,0,0,1-1-1A25.94,25.94,0,0,0,35.91,6.29a1,1,0,1,1,.3-2A27.94,27.94,0,0,1,60,31.32a1,1,0,0,1-1,1h0ZM28.89,60a1,1,0,0,1-.44-0.1A1,1,0,0,1,28,58.56a41,41,0,0,0,1.66-4,1,1,0,0,1,1.88.68,42.74,42.74,0,0,1-1.75,4.22A1,1,0,0,1,28.89,60Zm2.95-8.25-0.24,0a1,1,0,0,1-.73-1.21A40.23,40.23,0,0,0,32,41a40.19,40.19,0,0,0-1-9,1,1,0,1,1,1.95-.45A42.05,42.05,0,0,1,34,41a42.27,42.27,0,0,1-1.19,10A1,1,0,0,1,31.83,51.75ZM39,59.19a1,1,0,0,1-.34-0.06,1,1,0,0,1-.6-1.28A48.79,48.79,0,0,0,41,41a49.37,49.37,0,0,0-1.19-10.74A8,8,0,0,0,32,24a8,8,0,0,0-2.91.55,1,1,0,0,1-.73-1.86A9.94,9.94,0,0,1,32,22a10.06,10.06,0,0,1,9.76,7.82A51.36,51.36,0,0,1,43,41a50.8,50.8,0,0,1-3.1,17.53A1,1,0,0,1,39,59.19Zm10.94-5.82-0.19,0a1,1,0,0,1-.79-1.17A58.36,58.36,0,0,0,50,41a58.47,58.47,0,0,0-1.4-12.69A17,17,0,0,0,40.07,17a1,1,0,0,1,1-1.76,19,19,0,0,1,9.54,12.61A60.3,60.3,0,0,1,52,41a60.51,60.51,0,0,1-1.11,11.56A1,1,0,0,1,49.91,53.37ZM20.14,57.25a1,1,0,0,1-.88-1.48A31.07,31.07,0,0,0,23,41a31.26,31.26,0,0,0-.72-6.66,0.84,0.84,0,0,1,0-.13,10,10,0,0,1,2.34-8.93,1,1,0,1,1,1.48,1.34A8,8,0,0,0,24,32a8.1,8.1,0,0,0,.17,1.65,0.85,0.85,0,0,1,0,.13A33.22,33.22,0,0,1,25,41a33.06,33.06,0,0,1-4,15.73A1,1,0,0,1,20.14,57.25ZM12.73,52a1,1,0,0,1-.43-0.1,1,1,0,0,1-.47-1.33A21.78,21.78,0,0,0,14,41a22.11,22.11,0,0,0-.55-4.85,19,19,0,0,1,23.46-22.5,1,1,0,1,1-.52,1.93,17,17,0,0,0-21,20.13A24.09,24.09,0,0,1,16,41a23.78,23.78,0,0,1-2.37,10.41A1,1,0,0,1,12.73,52Z"/></svg>